{"title":"The Stepford Wives - [Comedy] - (2004) - DVDRip x264  [=Faith=]","uid":14348652,"size":707999453,"categoryP":"video","categoryS":"movies","magnet":"?xt=urn:btih:967269fd8b3e18b83e7c1e758b0a9902ee6c71b1&amp;dn=The+Stepford+Wives+-+%5BComedy%5D+-+%282004%29+-+DVDRip+x264++%5B%3DFaith%3D%5D&amp;tr=udp%3A%2F%2Ftracker.leechers-paradise.org%3A6969&amp;tr=udp%3A%2F%2Fzer0day.ch%3A1337&amp;tr=udp%3A%2F%2Fopen.demonii.com%3A1337&amp;tr=udp%3A%2F%2Ftracker.coppersurfer.tk%3A6969&amp;tr=udp%3A%2F%2Fexodus.desync.com%3A6969","seeders":3,"leechers":1,"uploader":"Faithwyn","files":3,"time":1461006843,"description":"The Stepford Wives\r\n\r\n\r\n\r\nJoanna Eberhart, a wildly succesful president of a TV Network, after a series of\r\nshocking events suffers a nervous breakdown and is moved by her milquetoast\r\nof a husband, Walter, from Manhattan to the chic, upper-class and very modern\r\nplanned community of Stepford, Connecticut. Once there, she makes good friends\r\nwith the ascerbic Bobbie Markowitz, a jewish writer who's also a recovering\r\nalcoholic. Together they find out, much to their growing stupor and then horror,\r\nthat all the housewives in town are strangely blissful, and somehow... doomed.\r\nWhat is going on behind the closed doors of the Stepford Men's Association and\r\nthe Stepford Day Spa? Why is everything perfect here? Will it be too late for\r\nJoanna and Bobbie when they finally find out?\r\n\r\n\r\nThe Film:\r\n\r\nTitle: The Stepford Wives\r\nGenre: Comedy\r\nDirected by: Frank Oz\r\nProduced by: Scott Rudin\r\nDonald De Line\r\nEdgar J. Scherick\r\nGabriel Grunfeld\r\nWritten by: Paul Rudnick\r\nBased on: The Stepford Wives by Ira Levin\r\nStars: Nicole Kidman, Matthew Broderick, Bette Midler, Christopher Walken,\r\nRoger Bart, Faith Hill, Glenn Close, Jon Lovitz\r\nRelease dates: June 11, 2004\r\nRunning time: 93 minutes\r\nCountry: United States\r\nLanguage: English\r\nSubtitles: English,French &amp; Spanish\r\nIMDB Rating: 5.2\r\n\r\n\r\nGeneral:\r\n\r\nComplete name : The Stepford Wives 2004.mp4\r\nFormat : MPEG-4\r\nFormat profile : Base Media / Version 2\r\nCodec ID : mp42\r\nFile size : 675 MiB\r\nDuration : 1h 32mn\r\nOverall bit rate mode : Variable\r\nOverall bit rate : 1 017 Kbps\r\nEncoded date : UTC 2014-04-09 14:04:25\r\nTagged date : UTC 2014-04-09 14:37:36\r\nWriting application : HandBrake 0.9.9\r\n\r\n\r\nVideo:\r\n\r\nID : 1\r\nFormat : AVC\r\nFormat/Info : Advanced Video Codec\r\nFormat profile :   \r\nFormat settings, CABAC : Yes\r\nFormat settings, ReFrames : 4 frames\r\nCodec ID : avc1\r\nCodec ID/Info : Advanced Video Coding\r\nDuration : 1h 32mn\r\nBit rate mode : Variable\r\nBit rate : 840 Kbps\r\nWidth : 720 pixels\r\nHeight : 480 pixels\r\nDisplay aspect ratio : 16:9\r\nOriginal display aspect ratio : 16:9\r\nFrame rate mode : Variable\r\nFrame rate : 23.976 fps\r\nMinimum frame rate : 15.851 fps\r\nMaximum frame rate : 29.970 fps\r\nStandard : NTSC\r\nColor space : YUV\r\nChroma subsampling : 4:2:0\r\nBit depth : 8 bits\r\nScan type : Progressive\r\nBits/(Pixel*Frame) : 0.101\r\nStream size : 558 MiB (83%)\r\nWriting library : x264 core 130 r2273 b3065e6\r\nColor primaries : BT.601 NTSC\r\n\r\n\r\nAudio:\r\n\r\nID : 2\r\nFormat : AAC\r\nFormat/Info : Advanced Audio Codec\r\nFormat profile : LC\r\nCodec ID : 40\r\nDuration : 1h 32mn\r\nBit rate mode : Variable\r\nBit rate : 160 Kbps\r\nMaximum bit rate : 325 Kbps\r\nChannel(s) : 2 channels\r\nChannel positions : Front: L R\r\nSampling rate : 48.0 KHz\r\nCompression mode : Lossy\r\nDelay relative to video : 83ms\r\nStream size : 106 MiB (16%)\r\nLanguage : English","torrent":{"xt":"urn:btih:967269fd8b3e18b83e7c1e758b0a9902ee6c71b1","amp;dn":"The+Stepford+Wives+-+%5BComedy%5D+-+%282004%29+-+DVDRip+x264++%5B%3DFaith%3D%5D","amp;tr":["udp%3A%2F%2Ftracker.leechers-paradise.org%3A6969","udp%3A%2F%2Fzer0day.ch%3A1337","udp%3A%2F%2Fopen.demonii.com%3A1337","udp%3A%2F%2Ftracker.coppersurfer.tk%3A6969","udp%3A%2F%2Fexodus.desync.com%3A6969"],"infoHash":"967269fd8b3e18b83e7c1e758b0a9902ee6c71b1","infoHashBuffer":{"type":"Buffer","data":[150,114,105,253,139,62,24,184,62,124,30,117,139,10,153,2,238,108,113,177]},"announce":[],"urlList":[]}}